<?xml version="1.0" standalone="no"?>
<!DOCTYPE svg PUBLIC "-//W3C//DTD SVG 20010904//EN"
 "http://www.w3.org/TR/2001/REC-SVG-20010904/DTD/svg10.dtd">
<svg version="1.0" xmlns="http://www.w3.org/2000/svg"
 width="593.000000pt" height="593.000000pt" viewBox="0 0 593.000000 593.000000"
 preserveAspectRatio="xMidYMid meet">
<metadata>
Created by potrace 1.14, written by Peter Selinger 2001-2017
</metadata>
<g transform="translate(0.000000,593.000000) scale(0.100000,-0.100000)"
fill="#000000" stroke="none">
<path d="M1047 5864 c-1 -1 -27 -4 -57 -7 -230 -23 -441 -125 -610 -297 -118
-120 -197 -249 -249 -410 -46 -144 -46 -124 -45 -2196 1 -1078 4 -1976 7
-1998 4 -21 9 -46 11 -55 3 -9 7 -27 10 -41 16 -95 114 -304 171 -366 5 -6 21
-26 35 -44 14 -18 30 -38 36 -44 146 -143 268 -220 434 -274 162 -53 60 -51
2215 -49 l2000 2 95 27 c223 62 419 191 557 364 53 68 129 209 156 291 25 76
29 93 45 178 4 22 7 942 7 2045 l0 2005 -22 85 c-53 202 -134 344 -277 486
-153 152 -313 238 -526 281 -66 14 -311 16 -2033 17 -1077 1 -1959 1 -1960 0z"/>
</g>
</svg>
